<svg width="1056" height="675" viewBox="0 0 1056 675" fill="none" xmlns="http://www.w3.org/2000/svg">
<path d="M85 275V120C85 67.5 160.14 25 252.96 25H796.62C893.86 25 969 67.5 969 120V275" stroke="#08FFF9" stroke-width="50" stroke-miterlimit="10" stroke-linecap="round" stroke-linejoin="round"/>
<path d="M147.769 650H65.9231C43.4154 650 25 627.5 25 600V350C25 307.5 51.6 275 86.3846 275C121.169 275 147.769 307.5 147.769 350V650Z" stroke="#08FFF9" stroke-width="50" stroke-miterlimit="10" stroke-linecap="round" stroke-linejoin="round"/>
<path d="M989.846 650H908V350C908 307.5 934.6 275 969.385 275C1004.17 275 1030.77 307.5 1030.77 350V600C1030.77 627.5 1012.35 650 989.846 650Z" stroke="#08FFF9" stroke-width="50" stroke-miterlimit="10" stroke-linecap="round" stroke-linejoin="round"/>
<path d="M908 400H148V650H908V400Z" stroke="#08FFF9" stroke-width="50" stroke-miterlimit="10" stroke-linecap="round" stroke-linejoin="round"/>
</svg>
